<svg xmlns="http://www.w3.org/2000/svg" xmlns:xlink="http://www.w3.org/1999/xlink" width="500" zoomAndPan="magnify" viewBox="0 0 375 374.999991" height="500" preserveAspectRatio="xMidYMid meet" version="1.0"><defs><clipPath id="id1"><path d="M 155.636719 80.636719 L 298.136719 80.636719 L 298.136719 223.136719 L 155.636719 223.136719 Z M 155.636719 80.636719 " clip-rule="nonzero"/></clipPath><clipPath id="id2"><path d="M 76.878906 151.878906 L 219.378906 151.878906 L 219.378906 294.378906 L 76.878906 294.378906 Z M 76.878906 151.878906 " clip-rule="nonzero"/></clipPath></defs><g clip-path="url(#id1)"><path fill="#8c52ff" d="M 226.886719 80.636719 C 187.539062 80.636719 155.636719 112.539062 155.636719 151.886719 C 155.636719 191.238281 187.539062 223.136719 226.886719 223.136719 C 266.238281 223.136719 298.136719 191.238281 298.136719 151.886719 C 298.136719 112.539062 266.238281 80.636719 226.886719 80.636719 " fill-opacity="1" fill-rule="nonzero"/></g><g clip-path="url(#id2)"><path fill="#ff914d" d="M 148.128906 151.878906 C 108.777344 151.878906 76.878906 183.777344 76.878906 223.128906 C 76.878906 262.480469 108.777344 294.378906 148.128906 294.378906 C 187.480469 294.378906 219.378906 262.480469 219.378906 223.128906 C 219.378906 183.777344 187.480469 151.878906 148.128906 151.878906 " fill-opacity="1" fill-rule="nonzero"/></g></svg>